<svg id="ѓЊѓCѓ_Ѓ__1" data-name="ѓЊѓCѓ„Ѓ[_1" xmlns="http://www.w3.org/2000/svg" viewBox="0 0 280.47 349.91"><defs><style>.cls-1{fill:#fff;}.cls-2{fill:#d9dadb;}.cls-3{fill:#fecf52;}.cls-4{fill:#fabe50;}.cls-5{fill:#a2daf4;}</style></defs><path class="cls-1" d="M268,132.62l-13.24-2.34a10.53,10.53,0,0,0-12.2,8.55l-.65,3.66-26.23-4.62a9.38,9.38,0,1,0-3.26,18.47L238.68,161,220.57,263.68l-26.23-4.63a9.38,9.38,0,0,0-3.26,18.48l26.24,4.62-.65,3.67a10.53,10.53,0,0,0,8.54,12.2l13.25,2.33a10.52,10.52,0,0,0,12.2-8.54l25.92-147A10.53,10.53,0,0,0,268,132.62Z"/><path class="cls-2" d="M255.44,126.61a14.28,14.28,0,0,0-16.52,11.56l-22.56-4A13.11,13.11,0,0,0,211.8,160l22.56,4-16.81,95.36-22.56-4a13.11,13.11,0,0,0-4.55,25.83l22.55,4a14.29,14.29,0,0,0,11.58,16.52L237.81,304a14.29,14.29,0,0,0,16.53-11.57l25.91-147a14.28,14.28,0,0,0-11.57-16.53Zm-46.92,19.51a5.66,5.66,0,0,1,6.54-4.58l26.23,4.63a3.74,3.74,0,0,0,4.33-3l.64-3.67a6.81,6.81,0,0,1,7.88-5.51l13.25,2.33a6.81,6.81,0,0,1,5.51,7.88L247,291.16a6.83,6.83,0,0,1-7.89,5.52l-13.24-2.34a6.8,6.8,0,0,1-5.51-7.88l.64-3.66a3.73,3.73,0,0,0-3-4.33l-26.23-4.62a5.65,5.65,0,0,1,2-11.12l26.23,4.62a3.74,3.74,0,0,0,4.33-3l18.11-102.72a3.73,3.73,0,0,0-3-4.32l-26.23-4.63A5.65,5.65,0,0,1,208.52,146.12Z"/><path class="cls-1" d="M228.92,76.32l-181.56-32L4,290.44H4v0c-3.54,20,34.24,43.47,84.37,52.32s93.65-.25,97.19-20.31v0h0Z"/><path class="cls-2" d="M48,40.63a3.73,3.73,0,0,0-4.32,3L.29,289.79c-2,11.33,6.44,23.47,23.76,34.21C40.38,334.13,63,342.1,87.69,346.46s48.66,4.59,67.47.66c20-4.17,32-12.69,34-24a3.61,3.61,0,0,1-1.3,2.19,4.88,4.88,0,0,0,1.43-2.93L232.6,77a3.73,3.73,0,0,0-.62-2.79,3.79,3.79,0,0,0-2.41-1.54ZM224.6,79.35c-1.26,7.13-42.76,242.45-42.76,242.45-1.41,8-11.69,14.56-28.2,18-17.9,3.74-40.87,3.49-64.66-.7S43.53,327.3,28,317.66c-14.34-8.89-21.76-18.57-20.35-26.54L50.39,48.63ZM187.73,325.46l-.21.14A1.28,1.28,0,0,0,187.73,325.46Zm-2.06.72h0Z"/><path class="cls-3" d="M211.86,93.47,57.53,66.26,23.07,261.72h0s0,0,0,0c-3,17.05,29.11,37,71.72,44.47s79.6-.21,82.61-17.26v0h0Z"/><path class="cls-1" d="M136.57,158.07a10.54,10.54,0,1,1,8.54,12.21A10.53,10.53,0,0,1,136.57,158.07Z"/><path class="cls-1" d="M167.41,142.4a6.32,6.32,0,1,1,5.13,7.32A6.33,6.33,0,0,1,167.41,142.4Z"/><path class="cls-1" d="M114.78,143.84a6.32,6.32,0,1,1,5.13,7.32A6.32,6.32,0,0,1,114.78,143.84Z"/><path class="cls-1" d="M183.53,154.36a3.95,3.95,0,1,1,3.2,4.57A3.95,3.95,0,0,1,183.53,154.36Z"/><path class="cls-1" d="M94.25,135.94a3.95,3.95,0,1,1,3.2,4.58A4,4,0,0,1,94.25,135.94Z"/><path class="cls-1" d="M150.08,189.37a3.95,3.95,0,1,1,3.2,4.58A3.93,3.93,0,0,1,150.08,189.37Z"/><path class="cls-1" d="M125.74,227.05a10.54,10.54,0,1,0-8.54-12.21A10.54,10.54,0,0,0,125.74,227.05Zm3-17a6.72,6.72,0,1,1-7.78,5.45A6.72,6.72,0,0,1,128.74,210.06Z"/><path class="cls-1" d="M177.25,191.19A10.54,10.54,0,1,0,168.7,179,10.53,10.53,0,0,0,177.25,191.19Zm3-17a6.72,6.72,0,1,1-7.78,5.45A6.72,6.72,0,0,1,180.24,174.2Z"/><path class="cls-1" d="M118.4,182.45a8.56,8.56,0,1,0-6.94-9.91A8.56,8.56,0,0,0,118.4,182.45Zm2.44-13.8a5.46,5.46,0,1,1-6.32,4.42A5.44,5.44,0,0,1,120.84,168.65Z"/><path class="cls-1" d="M85.46,184.93A6.85,6.85,0,1,0,79.9,177,6.85,6.85,0,0,0,85.46,184.93Zm1.94-11a4.37,4.37,0,1,1-5.05,3.54A4.36,4.36,0,0,1,87.4,173.89Z"/><path class="cls-4" d="M177.09,292.68C174.52,307.26,137.7,313,94.85,305.4s-75.5-25.5-72.93-40.08,39.39-20.27,82.24-12.71S179.67,278.11,177.09,292.68Z"/><path class="cls-5" d="M258.69,155.29l-14.63,83a3.73,3.73,0,1,0,7.35,1.3l14.64-83a3.74,3.74,0,0,0-7.36-1.29Z"/><path class="cls-1" d="M162.73,230.38l-14.64,83a3.73,3.73,0,1,0,7.35,1.3l14.64-83a3.73,3.73,0,1,0-7.35-1.29Z"/><path class="cls-1" d="M46.07,223.45,33.76,293.22a3.73,3.73,0,0,0,7.35,1.29l12.31-69.77a3.73,3.73,0,0,0-7.35-1.29Z"/><path class="cls-1" d="M140.22,262.28l-9.37,53.12a3.73,3.73,0,0,0,7.35,1.3l9.37-53.12a3.73,3.73,0,1,0-7.35-1.3Z"/><path class="cls-5" d="M240.67,257.53l-2.51,14.23a3.73,3.73,0,1,0,7.35,1.29L248,258.83a3.73,3.73,0,1,0-7.35-1.3Z"/><path class="cls-1" d="M225.49,47.81a31.84,31.84,0,0,0-4.74-.47c-2.56-13.83-12.77-25.08-26.6-27.52a31.85,31.85,0,0,0-21.87,4.09c-4.35-10.1-13.12-17.75-24.23-19.71a32.35,32.35,0,0,0-26.6,7.46,31.49,31.49,0,0,0-15.3-7.36C92.08,1.82,78.41,9.19,71.37,21.7a31.31,31.31,0,0,0-7.74-2.43c-18.15-3.2-35.66,10-39.09,29.48S33,86.61,51.19,89.82a31.2,31.2,0,0,0,11.2-.07,35.11,35.11,0,0,0,7.31,11.83,17.91,17.91,0,0,0-1.56,26.22c-7.21,12.12-21.15,40.43,3.2,44.73s19.54-26.83,16.3-40.46a17.91,17.91,0,0,0,10.82-21,32.43,32.43,0,0,0,5.74-1.63,32.37,32.37,0,0,0,22.44,16.1c11.11,2,22-2.23,29.52-10.23a31.82,31.82,0,0,0,19.14,11.32c11.36,2,22.45-2.4,30-10.75a31.76,31.76,0,0,0,7.74,2.44c18.16,3.2,35.67-10,39.1-29.48S243.65,51,225.49,47.81Z"/><path class="cls-2" d="M121.5,6.94A35.18,35.18,0,0,0,106.8.63C92.68-1.87,78.22,4.69,69.85,17.07a36,36,0,0,0-5.57-1.48C44.13,12,24.65,26.62,20.86,48.1s9.53,41.84,29.69,45.39a34.65,34.65,0,0,0,9.54.35,38,38,0,0,0,4.53,7.52,21.74,21.74,0,0,0-4.86,10.29h0a21.77,21.77,0,0,0,3.86,16.52c-4,7-7.85,15.36-9.23,23.2-.93,5.23-.75,10.25,1.2,14.51,2.53,5.53,7.61,9,15.1,10.32s13.45-.19,17.55-4.54c2.81-3,4.43-7,5.23-11.53,1.42-8,.24-17.63-1.55-26a21.5,21.5,0,0,0,10.47-15,21.89,21.89,0,0,0,.26-5.23A35.47,35.47,0,0,0,156,120.65a35.47,35.47,0,0,0,18.66,9.7,36.28,36.28,0,0,0,31.57-10,33.87,33.87,0,0,0,6.18,1.7c20.15,3.56,39.63-11,43.42-32.5s-9.53-41.84-29.69-45.4c-.77-.13-1.56-.24-2.35-.32-3.74-14.46-14.86-25.18-29-27.67a35.56,35.56,0,0,0-20.85,2.73A35.47,35.47,0,0,0,121.5,6.94Zm2.36,7.57A28.74,28.74,0,0,1,147.4,7.88a29.11,29.11,0,0,1,21.45,17.51,3.77,3.77,0,0,0,2.28,2.07,3.71,3.71,0,0,0,3.05-.34,28,28,0,0,1,19.32-3.63C205.45,25.6,214.71,35.23,217.08,48a3.74,3.74,0,0,0,3.59,3,29,29,0,0,1,4.18.41c16.1,2.84,26.7,19.33,23.62,36.75s-18.67,29.29-34.77,26.45a28,28,0,0,1-6.82-2.14,3.72,3.72,0,0,0-4.33.88c-7,7.7-16.93,11.28-26.6,9.58A28,28,0,0,1,159,113a3.73,3.73,0,0,0-5.6-.19,29.11,29.11,0,0,1-26.15,9.12,28.77,28.77,0,0,1-19.85-14.29,3.72,3.72,0,0,0-4.58-1.62,28.82,28.82,0,0,1-5.08,1.43,3.78,3.78,0,0,0-2.46,1.65,3.74,3.74,0,0,0-.48,2.93,14.17,14.17,0,0,1-8.57,16.59A3.73,3.73,0,0,0,84,132.94c3.84,16.16,3.39,28.72-1.2,33.6C80.51,169,77,169.73,72,168.85s-8.14-2.87-9.61-6.08c-2.92-6.37.43-18.73,9-33.06a3.73,3.73,0,0,0-.51-4.49,14.16,14.16,0,0,1,1.23-20.75A3.73,3.73,0,0,0,72.42,99a31.14,31.14,0,0,1-6.53-10.57,3.74,3.74,0,0,0-4.18-2.37,27.52,27.52,0,0,1-9.87.06c-16.1-2.84-26.7-19.32-23.63-36.75S46.88,20.11,63,22.94a28,28,0,0,1,6.81,2.15,3.74,3.74,0,0,0,4.82-1.56C81.05,12.1,93.46,5.85,105.5,8A27.91,27.91,0,0,1,119,14.47,3.73,3.73,0,0,0,123.86,14.51Z"/><path class="cls-1" d="M78,200.45a10.54,10.54,0,1,1-8.55-12.21A10.54,10.54,0,0,1,78,200.45Z"/><path class="cls-2" d="M53.59,196.14a14.27,14.27,0,1,0,16.53-11.57A14.29,14.29,0,0,0,53.59,196.14Zm7.35,1.3a6.8,6.8,0,1,1,5.52,7.88A6.81,6.81,0,0,1,60.94,197.44Z"/><path class="cls-2" d="M54.48,59.32a3.73,3.73,0,0,0,6.13,4.26C69,51.47,80.21,46.83,94.75,49.39c17.9,3.16,24.68,15.34,27.22,25a3.73,3.73,0,1,0,7.22-1.89C126.66,62.86,119,46.09,96,42,78.59,39,64.61,44.78,54.48,59.32Z"/><path class="cls-2" d="M131.64,27.46c-12.93.15-23.08,6.46-27.83,17.31a3.73,3.73,0,0,0,6.84,3c3.58-8.17,11.06-12.73,21.08-12.85,11.86-.14,16.62,4.32,20.12,11.07a3.73,3.73,0,1,0,6.63-3.43C153,32,144.71,27.3,131.64,27.46Z"/></svg>