<?xml version="1.0" encoding="utf-8"?>
<!-- Generator: Adobe Illustrator 23.0.5, SVG Export Plug-In . SVG Version: 6.00 Build 0)  -->
<svg version="1.1" id="Слой_1" xmlns="http://www.w3.org/2000/svg" xmlns:xlink="http://www.w3.org/1999/xlink" x="0px" y="0px"
	 viewBox="0 0 57.5 57.5" style="enable-background:new 0 0 57.5 57.5;" xml:space="preserve">
<style type="text/css">
	.st0{fill:url(#SVGID_1_);}
	.st1{fill:url(#SVGID_2_);stroke:#BE0000;stroke-width:2.5038;stroke-linecap:round;stroke-linejoin:round;}
	.st2{fill:#FFFFFF;}
</style>
<g transform="translate(4.4998 -.5)">
	
		<radialGradient id="SVGID_1_" cx="-55.4882" cy="47.544" r="27.545" gradientTransform="matrix(0.9985 0 0 -0.9985 68.0235 64.183)" gradientUnits="userSpaceOnUse">
		<stop  offset="0" style="stop-color:#FFFFFF"/>
		<stop  offset="1" style="stop-color:#00F038;stop-opacity:0"/>
	</radialGradient>
	<path class="st0" d="M51.8,29.3c0,15.2-12.3,27.5-27.5,27.5S-3.2,44.4-3.2,29.3S9.1,1.8,24.3,1.8S51.8,14.1,51.8,29.3z"/>
	
		<radialGradient id="SVGID_2_" cx="28.6382" cy="329.0867" r="27.545" gradientTransform="matrix(0.9175 0.9439 0.716 -0.696 -249.1409 220.3913)" gradientUnits="userSpaceOnUse">
		<stop  offset="0" style="stop-color:#FF9B9B"/>
		<stop  offset="1" style="stop-color:#F00000"/>
	</radialGradient>
	<path class="st1" d="M51.8,29.3c0,15.2-12.3,27.5-27.5,27.5S-3.2,44.4-3.2,29.3S9.1,1.8,24.3,1.8S51.8,14.1,51.8,29.3z"/>
	<path class="st2" d="M28.4,16.1c-1.8,1.6-3.1,4.4-4.5,5.8c-2.6-2.2-3.8-6.2-6.7-7.4c-3.4,0.9-8.9,4.1-4.9,7.6
		c2.1,3,6.2,5.7,7.2,8.9c-1.5,3.8-4.3,6.6-7,9.4c1.3,4.7,7.8,0.5,10.3-1.8c2.1-4.6,3.6,0.9,5.5,2.9c1.5,6.2,9.8,4.4,10.5-0.7
		c-2.8-4.5-6.8-8.9-9.5-13.4c1.1-4.7,5.6-7.8,6.7-12.3C34.2,12,30.7,15.5,28.4,16.1L28.4,16.1z"/>
</g>
</svg>
