<?xml version="1.0" encoding="utf-8"?>
<!-- Generator: Adobe Illustrator 23.0.5, SVG Export Plug-In . SVG Version: 6.00 Build 0)  -->
<svg version="1.1" xmlns="http://www.w3.org/2000/svg" xmlns:xlink="http://www.w3.org/1999/xlink" x="0px" y="0px"
	 viewBox="0 0 318.7 420.2" style="enable-background:new 0 0 318.7 420.2;" xml:space="preserve">
<style type="text/css">
	.st0{fill-rule:evenodd;clip-rule:evenodd;fill:#89D2F6;}
	.st1{fill-rule:evenodd;clip-rule:evenodd;fill:#009640;}
	.st2{fill-rule:evenodd;clip-rule:evenodd;fill:#FDC757;}
	.st3{fill-rule:evenodd;clip-rule:evenodd;fill:#C9E8FB;}
	.st4{fill-rule:evenodd;clip-rule:evenodd;fill:#9BBD1E;}
	.st5{fill-rule:evenodd;clip-rule:evenodd;fill:#48A734;}
	.st6{fill-rule:evenodd;clip-rule:evenodd;fill:#FFF6A2;}
	.st7{fill-rule:evenodd;clip-rule:evenodd;}
	.st8{fill-rule:evenodd;clip-rule:evenodd;fill:#FFFFFF;}
	.st9{fill-rule:evenodd;clip-rule:evenodd;fill:#C8953A;}
	.st10{fill-rule:evenodd;clip-rule:evenodd;fill:#4480C2;}
	.st11{fill-rule:evenodd;clip-rule:evenodd;fill:#3D58A4;}
	.st12{fill-rule:evenodd;clip-rule:evenodd;fill:#FED997;}
</style>
<g>
	<path class="st0" d="M254.7,337c0,8.6-17.2,14.2-23.6,16.2c-8.8,2.7-18.1,4.4-27.3,5.6c-11.1,1.4-22.3,2-33.5,2
		c-8.7,0-17.3-0.4-26-1.2c-7.9-0.8-15.9-1.9-23.7-3.5c-1.5-0.3-2.9,0.6-3.2,2.1c-0.3,1.5,0.6,2.9,2.1,3.2c8,1.7,16.1,2.8,24.3,3.6
		c8.8,0.8,17.6,1.2,26.5,1.2c11.4,0,22.9-0.7,34.3-2.1c9.4-1.2,19-3,28-5.8c6.6-2,13.9-4.9,19.5-9l2.4-1.8v41.9
		c0,8.6-17.2,14.2-23.6,16.2c-8.8,2.7-18.1,4.4-27.3,5.6c-11.1,1.4-22.3,2-33.5,2c-11.3,0-22.6-0.6-33.8-2.1
		c-9.4-1.2-18.9-2.9-27.9-5.6c-6.3-1.9-24.1-7.6-24.1-16.1v-41.9l2.5,1.8c5.8,4.2,13.6,7,20.4,9c1.4,0.4,2.9-0.4,3.4-1.8
		c0.4-1.4-0.4-2.9-1.8-3.4c-6.2-1.8-13.4-4.5-18.8-8.3c-2.5-1.8-5.7-4.6-5.7-7.9c0-0.7-0.3-1.4-0.8-1.9l-0.3-0.3L42.1,138.8l53.7-43
		l0.6,0.1c11.5,1.3,23.1,2.1,34.7,2.7c13.1,0.7,26.2,1,39.3,1c18.8,0,37.6-0.6,56.3-2.1c15.4-1.2,30.9-2.9,46-5.7
		c6.6-1.2,13.2-2.7,19.6-4.6c4.9-1.5,9.9-3.2,14.4-5.6l2.9-1.5l-53.7,254.5l-0.3,0.3C255,335.5,254.7,336.2,254.7,337z"/>
	<path class="st1" d="M219.8,166.9c1.3-0.2,2.7-0.3,4-0.5c1.3-0.2,2.6-0.3,3.9-0.5c1.5-0.2,2.5-1.6,2.3-3c-0.2-1.5-1.6-2.5-3-2.3
		c-1.3,0.2-2.6,0.3-3.8,0.5c-1.3,0.2-2.6,0.3-3.9,0.5c-1.5,0.2-2.6,1.5-2.4,3C216.9,166,218.3,167.1,219.8,166.9z"/>
	<path class="st1" d="M67,153.2c7.2,4,16,6.7,24.1,8.6c11.7,2.8,23.7,4.5,35.6,5.7c14.5,1.5,29.1,2.1,43.6,2.1
		c6.3,0,12.7-0.1,19-0.4c6.1-0.3,12.3-0.6,18.4-1.1c1.5-0.1,2.6-1.4,2.5-2.9c-0.1-1.5-1.4-2.6-2.9-2.5c-6,0.5-12.1,0.9-18.2,1.1
		c-6.3,0.3-12.5,0.4-18.8,0.4c-14.3,0-28.7-0.6-43-2.1c-11.7-1.2-23.6-2.9-35.1-5.6c-7-1.7-26.5-6.5-29.9-13.7l-0.1-0.2l-0.5-2.4
		l0-0.2c0.3-4.1,5.7-7.1,9-8.7c6.6-3.2,14.4-5.3,21.5-7c11.5-2.7,23.4-4.4,35.1-5.6c14.3-1.4,28.6-2.1,43-2.1
		c13.8,0,27.7,0.7,41.4,2.2c11.5,1.2,23,3,34.3,5.7c7.6,1.8,15.9,4,23,7.2c3.1,1.4,9.3,4.3,9.8,8.2l0,0.3l-0.6,3l-0.1,0.2
		c-1.7,3.4-6,5.8-9.3,7.3c-4.2,1.9-8.7,3.4-13.1,4.5c-5.6,1.5-11.4,2.6-17.2,3.6c-1.5,0.3-2.5,1.6-2.2,3.1c0.2,1.5,1.6,2.5,3.1,2.2
		c6-1,12.1-2.2,18-3.8c4.6-1.2,9.3-2.7,13.7-4.8c0.7-0.3,1.4-0.7,2.1-1.1l2.9-1.5l-35.7,170.6l0,0.1c-0.1,0.2-0.1,0.5-0.1,0.8
		c0,2.6-3.8,4.2-5.8,4.9c-4.2,1.7-9,2.8-13.4,3.8c-7.5,1.7-15.2,2.7-22.9,3.4c-9.3,0.9-18.7,1.2-28.1,1.2c-9.5,0-18.9-0.4-28.4-1.3
		c-7.8-0.7-15.7-1.8-23.4-3.4c-4.5-1-9.4-2.1-13.7-3.8c-2-0.8-6-2.3-6-4.9c0-0.3,0-0.5-0.1-0.8l0-0.1l-34.6-172L67,153.2z"/>
	<path class="st2" d="M247.3,119.2c-11.4-2.7-23.2-4.5-34.8-5.8c-14-1.5-28.1-2.2-42.1-2.2c-14.6,0-29.2,0.6-43.6,2.1
		c-11.9,1.2-24,3-35.6,5.7c-8.5,2-18.3,5-25.8,9.6c-4,2.5-8.9,6.5-8.9,11.7c0,1,0.2,2,0.6,3l0,0.1l36.4,181.1l0,0.1
		c0.5,8,18,12.4,23.9,13.7c7.8,1.7,15.9,2.8,23.9,3.5c9.6,0.9,19.3,1.3,29,1.3c9.6,0,19.1-0.4,28.7-1.3c7.8-0.7,15.8-1.8,23.5-3.5
		c5.9-1.3,22.9-5.7,23.5-13.6l0-0.1L283.4,145l0.1-0.1c0.6-1.4,0.9-2.9,0.9-4.5c0-4.9-5.8-9-9.5-11.2
		C266.8,124.5,256.4,121.4,247.3,119.2z"/>
	<path class="st1" d="M72.3,59.1c0.8,2.2,1.4,4.4,2,6.7l0.9,3.6L72,67.5c-1.9-1.1-3.7-2.3-5.4-3.6c-2.6-2-5.5-4.5-7-7.5
		c-0.9-1.8-1.3-4-0.4-5.9c0.3-0.7,0.8-1.3,1.4-1.7c0.6-0.4,1.2-0.6,1.9-0.7c2.1-0.1,4.1,1.4,5.4,2.9C70,53.2,71.3,56.3,72.3,59.1z"
		/>
	<path class="st1" d="M81.7,73.7c-1.1-5.5-2.3-11.2-4.2-16.4c-1.3-3.5-2.9-7.1-5.5-9.9c-2.5-2.7-5.9-4.9-9.7-4.7
		c-1.7,0.1-3.4,0.7-4.8,1.7c-1.4,1-2.4,2.3-3.1,3.8c-1.6,3.4-1.2,7.3,0.4,10.7c1.9,3.7,5.3,6.9,8.6,9.4c4.4,3.3,9.5,6.1,14.4,8.6
		c1.3,0.7,3,0.1,3.6-1.2C81.7,75,81.8,74.4,81.7,73.7L81.7,73.7z"/>
	<path class="st1" d="M59.1,92.7c-2,0.7-4.1,1.4-6.2,1.9c-3.2,0.8-7,1.4-10.3,0.6c-2-0.4-3.9-1.6-4.8-3.5c-0.3-0.7-0.5-1.4-0.4-2.2
		c0-0.7,0.3-1.3,0.7-1.9c1.3-1.7,3.7-2.2,5.7-2.3c3-0.1,6.2,0.8,9.1,1.8c2.2,0.8,4.3,1.7,6.4,2.7l3.4,1.6L59.1,92.7z"/>
	<path class="st1" d="M70.1,89.3c-4.9-2.7-10.2-5.3-15.5-7.2c-3.5-1.3-7.3-2.3-11.1-2.1c-3.7,0.2-7.5,1.4-9.8,4.5
		c-1,1.4-1.6,3-1.8,4.7c-0.1,1.7,0.2,3.3,0.9,4.8c1.6,3.4,4.9,5.6,8.5,6.4c4.1,0.9,8.7,0.3,12.7-0.6c5.3-1.3,10.6-3.4,15.6-5.6l0,0
		l0,0c0.6-0.2,1.1-0.7,1.4-1.2C71.9,91.6,71.4,90,70.1,89.3z"/>
	<path class="st1" d="M106.1,37.3c0.7-0.2,1.5-0.3,2.2-0.1c0.7,0.1,1.3,0.5,1.8,1c1.5,1.5,1.7,4,1.5,6c-0.3,3-1.7,6-3.1,8.7
		c-1.1,2-2.3,4-3.6,6l-2.1,3.1l-0.7-3.7c-0.4-2.1-0.8-4.3-0.9-6.5c-0.3-3.3-0.3-7.1,0.9-10.2C102.7,39.6,104.1,37.9,106.1,37.3z"/>
	<path class="st1" d="M100.2,70.3C100.2,70.3,100.2,70.3,100.2,70.3l0.1,0.1c0.2,0.1,0.4,0.2,0.6,0.2c0.1,0,0.2,0,0.2,0.1
		c0.4,0.1,0.8,0.1,1.2,0c0.1,0,0.2-0.1,0.4-0.1l0,0c0.3-0.1,0.5-0.3,0.7-0.5c0.1-0.1,0.3-0.3,0.4-0.4c3.3-4.5,6.7-9.3,9.4-14.2
		c1.8-3.3,3.3-6.9,3.7-10.7c0.4-3.7-0.3-7.7-3-10.4c-1.2-1.2-2.7-2-4.4-2.4c-1.6-0.4-3.3-0.3-4.9,0.2c-3.6,1.1-6.3,4-7.6,7.5
		c-1.5,3.9-1.6,8.5-1.2,12.7c0.5,5.5,1.8,11.1,3.3,16.5c0.1,0.4,0.3,0.8,0.6,1.1C99.8,70,100,70.1,100.2,70.3z"/>
	<path class="st3" d="M170.4,94.2c-11.7,0-23.4-0.2-35.1-0.8c-9.9-0.5-19.7-1.2-29.6-2.2l-3.7-0.4l55.1-44.1l0.5,0
		c1.8,0,3.7-0.1,5.5-0.1c2.4,0,4.8,0,7.3,0c18.6,0,37.3,0.6,55.8,2.1c15.2,1.2,30.5,2.9,45.5,5.6c5.3,1,10.7,2.1,15.9,3.4
		c4.1,1,8.2,2.2,12.2,3.6c3.5,1.3,11.2,4.2,11.8,8.6l0,0.2l-0.5,2.1l-0.1,0.2c-2,3.7-9.1,6.3-12.8,7.5c-8.5,2.9-17.8,4.8-26.6,6.4
		c-15,2.8-30.3,4.5-45.5,5.6C207.7,93.6,189,94.2,170.4,94.2z"/>
	<path class="st4" d="M93.8,89.8c-4.8-0.6-9.6-1.3-14.3-2.2c-1.5-0.3-2.9,0.7-3.1,2.2c-0.3,1.5,0.7,2.9,2.2,3.1
		c2.2,0.4,4.4,0.8,6.7,1.1l3.4,0.5L76.8,104l-0.5,0c-5,0-10.3,0.2-15.2,1c-4.1,0.7-8.5,2-11.9,4.4c-1.6,1.1-2.9,2.6-3.8,4.2
		c-1,1.7-1.5,3.7-1.4,5.7c0.1,1.9,0.6,3.8,1.8,5.3c0.3,0.4,0.7,0.8,1.1,1.2l1.3,1.2l-14.5,11.6l-0.8-1.8
		c-8.4-18.5-12.6-39.1-8.5-59.3c2.9-14.1,9.8-26.9,20.2-36.9c10.1-9.6,22.7-16,36.4-18.5c17.4-3.2,35,0.1,50.6,8.2
		c3.5,1.9,7,4,10.3,6.3c2.9,2,5.6,4.2,8.2,6.4l1.4,1.2l-7.2,5.8l-1-1.2c-1.2-1.5-2.8-2.5-4.6-3.1c-1.9-0.6-3.9-0.6-5.9-0.1
		c-1.9,0.5-3.6,1.4-5.1,2.6c-3.3,2.6-5.7,6.6-7.5,10.3c-2.2,4.6-3.8,9.6-5.1,14.5l-0.1,0.5L94.5,89.9L93.8,89.8z"/>
	<path class="st5" d="M79.8,17c-14.7,2.7-28.4,9.5-39.2,19.9C29.3,47.7,21.9,61.5,18.8,76.7c-4.5,22,0.3,44.5,9.7,64.5l0.5,1.1
		l-9.9,7.9l-0.8-1.8c-9.4-21.8-14.2-45.9-9.8-69.5c2.6-14,8.4-27.1,17.2-38.4c8.4-10.7,19.1-19.2,31.4-25c17.5-8.3,37.1-10.5,56.2-7
		c9.7,1.8,19.1,5.1,27.9,9.6c7.8,4,15.1,8.9,21.8,14.5l1.4,1.2l-9,7.2l-1-0.9c-3.1-2.8-6.4-5.4-9.8-7.8c-3.5-2.4-7.1-4.6-10.8-6.6
		C117.2,17.1,98.3,13.6,79.8,17z"/>
	<path class="st6" d="M130.8,52.7c0.9-0.7,1.9-1.3,3-1.5c1-0.2,2-0.3,3,0c0.8,0.2,1.4,0.7,1.9,1.3l1,1.2l-18,14.4l2.5-5.7
		c0.2-0.4,0.4-0.9,0.6-1.3C126.2,58.1,128.2,54.7,130.8,52.7L130.8,52.7z M103.4,42.1c-0.9,2.4-1.1,5.6-0.8,9.6
		c0.2,1.9,0.5,4,0.9,6.3c1.4-2.2,2.6-4.1,3.5-5.8c1.8-3.3,2.7-5.9,2.9-8.1c0.2-2.4-0.2-4-1-4.8c-0.3-0.3-0.6-0.5-1-0.6
		c-0.4-0.1-0.9-0.1-1.4,0.1C105.3,39.1,104.1,40.2,103.4,42.1L103.4,42.1z M61,55.6c1.1,2.3,3.4,4.6,6.6,7c1.6,1.2,3.3,2.3,5.3,3.5
		c-0.6-2.5-1.3-4.6-2-6.5c-1.3-3.5-2.6-6-4.1-7.6c-1.6-1.8-3.1-2.5-4.2-2.4c-0.4,0-0.8,0.2-1.1,0.4c-0.4,0.3-0.7,0.6-0.9,1.1
		C60.1,52.2,60.1,53.9,61,55.6L61,55.6z M39.2,91.1c0.6,1.2,1.8,2.2,3.8,2.6c2.5,0.6,5.7,0.3,9.6-0.6c1.9-0.5,3.9-1.1,6.1-1.8
		c-2.3-1.1-4.4-2-6.3-2.6c-3.5-1.3-6.2-1.8-8.5-1.7c-2.4,0.1-3.9,0.8-4.6,1.7c-0.2,0.3-0.4,0.7-0.4,1.1
		C38.8,90.1,38.9,90.6,39.2,91.1L39.2,91.1z M61.9,110.4c1-0.2,1.9-0.3,2.9-0.4l5.3-0.6l-17.7,14.2l-1-0.7c-0.1-0.1-0.2-0.2-0.4-0.2
		c-0.4-0.3-0.8-0.6-1.1-1c-0.5-0.7-0.7-1.5-0.7-2.3c0-1,0.3-2,0.8-2.9c0.6-1,1.4-1.8,2.3-2.5C55,111.9,58.7,111,61.9,110.4z"/>
	<path class="st7" d="M105.9,89.7c9,0.9,18.8,1.6,29.5,2.2c11.1,0.5,22.8,0.8,35,0.8c39.6,0,75.3-2.9,101.1-7.7
		c21.7-4,35.9-8.7,38.3-13.2l0.4-1.7c-0.6-4.9-15.2-10-38.7-14.3c-25.8-4.7-61.5-7.7-101.1-7.7c-3.6,0-6.1,0-7.2,0
		c-1.8,0-3.7,0-5.5,0.1L105.9,89.7L105.9,89.7z M84.9,95.6l-8.7,6.9c-5.9,0-11.1,0.3-15.5,1.1c-5.2,0.9-9.4,2.4-12.6,4.7
		c-1.9,1.4-3.3,3-4.3,4.7c-1.2,2.1-1.7,4.3-1.6,6.5c0.1,2.3,0.8,4.4,2.1,6.2c0.4,0.5,0.8,1,1.2,1.4L34,136.4
		c-9.8-21.7-11.8-41.5-8.4-58.3c3-14.5,10.1-26.8,19.8-36.1c9.7-9.3,22.1-15.6,35.6-18.1c15.7-2.9,33-0.6,49.6,8.1
		c3.4,1.8,6.8,3.8,10.1,6.2c2.7,1.9,5.4,4,8.1,6.4l-4.6,3.7c-1.4-1.7-3.2-2.9-5.4-3.6c-2-0.6-4.3-0.7-6.7-0.2
		c-1.9,0.5-3.9,1.4-5.7,2.8c-3,2.4-5.6,6.1-7.9,10.8c-1.9,4.1-3.7,9.1-5.2,14.8L94,88.3c-5.1-0.7-9.9-1.4-14.3-2.2
		c-2.3-0.4-4.5,1.1-4.9,3.4c-0.4,2.3,1.1,4.5,3.4,4.9C80.4,94.8,82.6,95.2,84.9,95.6L84.9,95.6z M238.9,324.4c0-0.4,0.1-0.8,0.2-1.2
		l35-167.4c-0.7,0.4-1.4,0.7-2.2,1.1c-7.8,3.6-18.7,6.4-32.1,8.7c-2.3,0.4-4.5-1.2-4.9-3.5c-0.4-2.3,1.2-4.5,3.5-4.9
		c12.6-2.1,22.9-4.7,29.9-8c4.4-2.1,7.4-4.2,8.5-6.6l0.5-2.5c-0.5-4.3-12.6-9.6-31.6-14.1c-19.6-4.7-46.1-7.9-75.3-7.9
		c-30.4,0-57.9,2.9-77.7,7.6c-17.8,4.2-28.9,9.3-29.3,14.3l0.4,2c2.2,4.5,12.8,9.1,28.9,12.9c19.8,4.7,47.3,7.6,77.7,7.6
		c6.6,0,12.9-0.1,18.7-0.4c6.1-0.2,12.1-0.6,18.1-1.1c2.3-0.2,4.4,1.5,4.6,3.9c0.2,2.3-1.5,4.4-3.9,4.6c-5.8,0.5-11.9,0.9-18.5,1.1
		c-6.4,0.3-12.8,0.4-19.1,0.4c-31,0-59.2-3-79.6-7.9c-10.1-2.4-18.4-5.4-24.4-8.8l33.9,168.7c0.1,0.4,0.2,0.8,0.2,1.2
		c0,2.1,7.1,4.7,18.4,7.2c13.2,2.9,31.5,4.6,51.4,4.6c19.9,0,37.8-1.8,50.6-4.6C232,329.2,238.9,326.6,238.9,324.4L238.9,324.4z
		 M247.4,324.9l37.5-179.4c0.6-1.6,1-3.3,1-5c0-8.7-14.7-17.1-38.2-22.7c-20.2-4.8-47.4-8.1-77.3-8.1c-31,0-59.2,3-79.6,7.9
		c-22.2,5.3-35.9,13.3-35.9,22.9c0,1.2,0.2,2.4,0.6,3.5l36.4,180.9c0.4,6.5,10,11.8,25.1,15.1c13.8,3,32.7,4.8,53.2,4.8
		c20.4,0,38.9-1.8,52.4-4.8C237.6,336.6,246.9,331.4,247.4,324.9L247.4,324.9z M256.8,322.7c-3.9,18.6-4.1,22.3-26.1,29
		c-15.3,4.7-36.7,7.6-60.3,7.6c-9.1,0-17.7-0.4-25.8-1.2c-8.4-0.8-16.3-2-23.5-3.5c-2.3-0.5-4.5,1-5,3.3c-0.5,2.3,1,4.5,3.3,5
		c7.4,1.5,15.7,2.8,24.5,3.6c8.5,0.8,17.5,1.2,26.6,1.2c24.4,0,46.6-3,62.8-8c8.3-2.5,15.1-5.7,20-9.2v38.9
		c0,5.2-8.6,10.5-22.5,14.7c-15.3,4.7-36.7,7.6-60.3,7.6c-23.7,0-45.5-2.9-61.3-7.6c-14.1-4.2-23-9.4-23-14.6v-38.9l0.1,0.1
		c5,3.5,12.1,6.7,20.8,9.3c2.2,0.7,4.6-0.6,5.3-2.9c0.7-2.2-0.6-4.6-2.9-5.3c-7.8-2.3-14.1-5-18.3-8c-3.2-2.3-5-4.6-5-6.7
		c0-1.2-0.5-2.3-1.3-3L43.8,139.4l52.5-42c10.7,1.2,22.4,2.1,34.8,2.8c12.7,0.7,25.9,1,39.4,1c40,0,76.3-3,102.6-7.8
		c14.7-2.7,26.5-6.2,34.4-10.3L256.8,322.7L256.8,322.7z M168.3,39.7l2.1,0c40,0,76.3,3,102.6,7.8c28.2,5.2,45.7,13.2,45.7,22.9
		c0,1-0.2,1.9-0.5,2.8l-56.5,267.5v48.6c0,9.4-10.9,17.4-28.5,22.8c-16.2,4.9-38.4,8-62.8,8c-24.5,0-47.2-3.1-63.7-8
		c-17.9-5.3-29.1-13.3-29.1-22.7v-48.6L36.3,145.3l-19.7,15.8l-2.3-4.9c-13.7-29-16.8-55.7-12.5-78.6c3-15.8,9.5-29.8,18.5-41.4
		c9.1-11.6,20.7-20.8,33.9-27c18.1-8.5,39.1-11.5,60.4-7.5c9.9,1.9,20,5.2,29.8,10.3c9.3,4.8,18.4,11,27.1,18.8
		c1.7,1.6,1.9,4.3,0.3,6c-0.2,0.2-0.4,0.4-0.7,0.6L168.3,39.7L168.3,39.7z M226.7,159c2.3-0.3,4.5,1.3,4.8,3.6
		c0.3,2.3-1.3,4.5-3.6,4.8c-2.1,0.3-3.4,0.5-3.9,0.5c-1,0.1-2.3,0.3-4,0.5c-2.3,0.3-4.4-1.4-4.7-3.7s1.4-4.4,3.7-4.7
		c1-0.1,2.3-0.3,3.9-0.5C225,159.2,226.2,159.1,226.7,159L226.7,159z M140.5,19.5c7.3,3.7,14.5,8.5,21.5,14.3l-6.5,5.2
		c-3.2-2.9-6.6-5.5-10-7.9c-3.6-2.5-7.3-4.8-11-6.7c-18.3-9.6-37.5-12.1-55-8.9c-15.2,2.8-29,9.8-40,20.3
		C28.6,46.2,20.6,60.1,17.3,76.4c-3.9,19-1.5,41.3,9.8,65.5l-7.4,5.9c-11-25.3-13.4-48.6-9.7-68.6C12.8,64.7,18.7,52,27,41.5
		c8.2-10.5,18.8-18.9,30.8-24.5c16.5-7.8,35.7-10.5,55.2-6.9C122.2,11.8,131.5,14.9,140.5,19.5L140.5,19.5z M52.4,121.6L65,111.5
		c-1,0.1-1.9,0.3-2.8,0.4c-3.9,0.7-7,1.7-9,3.2c-0.8,0.6-1.5,1.3-1.8,2c-0.4,0.7-0.6,1.5-0.6,2.1c0,0.5,0.2,1,0.5,1.4
		c0.2,0.2,0.4,0.4,0.7,0.6C52.1,121.4,52.2,121.5,52.4,121.6L52.4,121.6z M125.6,63c0.2-0.4,0.4-0.9,0.6-1.3
		c1.7-3.6,3.5-6.3,5.5-7.8c0.8-0.7,1.6-1.1,2.4-1.2c0.8-0.2,1.5-0.2,2.2,0c0.5,0.2,0.9,0.4,1.2,0.8L125.6,63L125.6,63z M105.1,70.5
		c-0.2,0.2-0.4,0.5-0.6,0.7c-0.5,0.5-1,0.7-1.7,0.9c-0.6,0.2-1.3,0.2-1.9,0.1c-0.1,0-0.2-0.1-0.4-0.1c-0.3-0.1-0.6-0.2-0.9-0.4
		c-0.1,0-0.1-0.1-0.2-0.1c-0.3-0.2-0.6-0.5-0.9-0.8c-0.5-0.5-0.7-1-0.9-1.7c-1.7-6.2-2.9-11.9-3.3-16.8c-0.5-5.2-0.1-9.7,1.3-13.3
		c1.7-4.5,5-7.3,8.6-8.4c1.9-0.6,3.8-0.7,5.7-0.3c1.9,0.4,3.7,1.4,5.2,2.8c2.5,2.5,4,6.4,3.5,11.6c-0.3,3.3-1.6,7-3.9,11.3
		C112.4,60.1,109.3,64.8,105.1,70.5L105.1,70.5z M103.3,71.9L103.3,71.9L103.3,71.9L103.3,71.9z M97.7,69.7L97.7,69.7L97.7,69.7
		L97.7,69.7z M102.6,51.6c-0.4-4-0.1-7.2,0.8-9.6c0.7-1.9,1.9-3,3.1-3.3c0.5-0.2,1-0.2,1.4-0.1c0.4,0.1,0.7,0.3,1,0.6
		c0.8,0.8,1.3,2.3,1,4.8c-0.2,2.2-1.1,4.8-2.9,8.1c-0.9,1.8-2.1,3.7-3.5,5.8C103.1,55.7,102.8,53.6,102.6,51.6L102.6,51.6z
		 M70.3,95.6c0.9-0.4,1.7-1,2.2-1.9c1.1-2.1,0.3-4.6-1.7-5.7c-6.3-3.4-11.4-5.8-15.7-7.3c-4.6-1.7-8.4-2.3-11.7-2.2
		c-5.3,0.2-8.9,2.3-11,5.1c-1.2,1.7-1.9,3.6-2,5.5c-0.1,1.9,0.2,3.8,1.1,5.6c1.6,3.4,4.9,6.2,9.6,7.3c3.8,0.9,8.3,0.6,13.4-0.7
		C59.2,100.2,64.5,98.2,70.3,95.6L70.3,95.6z M52.5,93.1c1.9-0.5,3.9-1.1,6.1-1.8c-2.3-1.1-4.4-2-6.3-2.6c-3.5-1.3-6.2-1.8-8.5-1.7
		c-2.4,0.1-3.9,0.8-4.6,1.7c-0.2,0.3-0.4,0.7-0.4,1.1c0,0.5,0.1,0.9,0.3,1.4c0.6,1.2,1.8,2.2,3.8,2.6C45.4,94.3,48.6,94,52.5,93.1
		L52.5,93.1z M83.2,73.4c-1.4-7-2.8-12.4-4.3-16.7c-1.6-4.6-3.5-7.9-5.8-10.4c-3.5-3.9-7.4-5.4-10.9-5.2c-2.1,0.1-4,0.8-5.6,1.9
		c-1.5,1.1-2.8,2.6-3.6,4.4c-1.6,3.4-1.7,7.7,0.5,12c1.8,3.5,4.8,6.8,9,9.9c3.9,3,8.9,5.9,14.7,8.8c2.1,1,4.7,0.2,5.7-1.9
		C83.3,75.3,83.4,74.3,83.2,73.4L83.2,73.4z M67.6,62.6c1.6,1.2,3.3,2.3,5.3,3.5c-0.6-2.5-1.3-4.6-2-6.5c-1.3-3.5-2.6-6-4.1-7.6
		c-1.6-1.8-3.1-2.5-4.2-2.4c-0.4,0-0.8,0.2-1.1,0.4c-0.4,0.3-0.7,0.6-0.9,1.1c-0.5,1.2-0.5,2.8,0.4,4.6
		C62.1,57.9,64.4,60.2,67.6,62.6z"/>
	<path class="st8" d="M211.4,83.9l7.2-0.5l0.5,7.2l-7.2,0.5L211.4,83.9L211.4,83.9z M288.9,74.2l5.8-3.3l3.6,6.3l-6.3,3.6l-1.9-3.3
		l-0.5,4.1l-7.2-0.8l0.8-7.2L288.9,74.2L288.9,74.2z M275.3,77.9l7.2,0.8l-0.8,7.2l-7.2-0.8l0.2-1.4l-5.9,3.7l-3.8-6.1l6.1-3.8
		l3.7,5.8L275.3,77.9L275.3,77.9z M257.1,79.5l7.2-0.5l0.5,7.2l-7.2,0.5L257.1,79.5L257.1,79.5z M248,82.8l6.9-2l2,6.9l-6.9,2
		l-1.1-3.6l-2.8,5.1l-6.3-3.5l3.5-6.3l5.1,2.8L248,82.8L248,82.8z M237.3,83.9l1.3,7.1l-7.1,1.3l-1.3-7.1L237.3,83.9L237.3,83.9z
		 M220.6,85.6l6.9-2l2,6.9l-6.9,2L220.6,85.6z"/>
	<path class="st9" d="M239.1,323.2l20.5-98.2c-37.2,50.7-93.3,68.5-168.4,53.6l9,44.6c0.1,0.4,0.2,0.8,0.2,1.2
		c0,2.1,7.1,4.7,18.4,7.2c13.2,2.9,31.5,4.6,51.4,4.6c19.9,0,37.8-1.8,50.6-4.6c11.1-2.5,18-5.1,18-7.2
		C238.9,324,238.9,323.6,239.1,323.2z"/>
	<path class="st10" d="M247.4,324.9c-0.4,6.5-9.8,11.7-24.7,15c-13.5,3-32.1,4.8-52.4,4.8c-20.5,0-39.4-1.9-53.2-4.8
		c-15.2-3.3-24.8-8.5-25.1-15.1l-8.5-42.1c-2.9,1.5-5.7,2.9-8.5,4.3l9.9,46.9c0.8,0.8,1.3,1.9,1.3,3c0,2.1,1.8,4.4,5,6.7
		c4.2,3,10.5,5.7,18.3,8c2.2,0.7,3.5,3,2.9,5.3c-0.7,2.2-3,3.5-5.3,2.9c-8.7-2.6-15.9-5.7-20.8-9.3l-0.1-0.1v38.9c0,0.2,0,0.3,0,0.5
		c90.9,14.3,146.6,1.2,167-39.4c-4.9,3.6-11.7,6.7-20,9.2c-16.2,4.9-38.4,8-62.8,8c-9.1,0-18.1-0.4-26.6-1.2
		c-8.8-0.8-17-2.1-24.5-3.6c-2.3-0.5-3.8-2.7-3.3-5c0.5-2.3,2.7-3.8,5-3.3c7.2,1.5,15.1,2.7,23.5,3.5c8.1,0.8,16.8,1.2,25.8,1.2
		c23.6,0,45-2.9,60.3-7.6c22-6.7,22.2-10.4,26.1-29l33.5-158.9c-5.1,15.1-11.1,28.7-17.9,41L247.4,324.9z"/>
	<path class="st11" d="M253.2,350.5c-20.4,40.6-76.1,53.7-167,39.4c0.5,5,9.3,10,23,14.1c15.8,4.7,37.5,7.6,61.3,7.6
		c23.6,0,45-2.9,60.3-7.6c13.9-4.2,22.5-9.5,22.5-14.7V350.5z"/>
	<path class="st12" d="M189.1,162.3c6.1-0.2,12.1-0.6,18.1-1.1c2.3-0.2,4.3,1.5,4.6,3.8l3.4-0.4c-0.2-2.3,1.5-4.3,3.8-4.5
		c1-0.1,2.3-0.3,3.9-0.5c2.1-0.3,3.4-0.4,3.8-0.5c2.3-0.3,4.4,1.3,4.8,3.6l3.5-0.4c0,0,0,0,0,0c-0.4-2.3,1.2-4.5,3.5-4.9
		c12.6-2.1,22.9-4.7,29.9-8c4.4-2.1,7.4-4.2,8.5-6.6l0.5-2.5c-0.5-4.3-12.6-9.6-31.6-14.1c-19.6-4.7-46.1-7.9-75.3-7.9
		c-30.4,0-57.9,2.9-77.7,7.6c-17.8,4.2-28.9,9.3-29.3,14.3l0.4,2c2.2,4.5,12.8,9.1,28.9,12.9c19.8,4.7,47.3,7.6,77.7,7.6
		C177,162.7,183.2,162.5,189.1,162.3z"/>
</g>
</svg>
