<svg xmlns="http://www.w3.org/2000/svg" width="56" height="56" viewBox="0 0 56 56">
  <path id="Icon_awesome-user-circle" data-name="Icon awesome-user-circle" d="M28,.563a28,28,0,1,0,28,28A28,28,0,0,0,28,.563ZM28,11.4a9.935,9.935,0,1,1-9.935,9.935A9.936,9.936,0,0,1,28,11.4ZM28,50.24a21.635,21.635,0,0,1-16.54-7.7,12.588,12.588,0,0,1,11.121-6.752,2.763,2.763,0,0,1,.8.124A14.949,14.949,0,0,0,28,36.692a14.892,14.892,0,0,0,4.618-.779,2.763,2.763,0,0,1,.8-.124A12.588,12.588,0,0,1,44.54,42.54,21.635,21.635,0,0,1,28,50.24Z" transform="translate(0 -0.563)" fill="#fff"/>
</svg>
